<svg preserveAspectRatio="xMidYMid meet" width="140" height="150" viewBox="0 0 140 150.004" fill="none" xmlns="http://www.w3.org/2000/svg">
<g id="Layer 1">
<path id="Vector" d="M116.754 143.505C115.623 145.089 113.408 145.688 111.63 145.688C107.782 145.688 105.963 143.423 105.712 141.12H122.5V140.429C122.5 135.026 118.989 130.206 111.396 130.206C104.675 130.206 100.057 133.724 100.057 139.925C100.057 144.167 102.465 150.004 111.326 150.004C118.878 150.004 122.459 145.043 122.755 143.505H116.75H116.754ZM111.297 134.41C113.573 134.41 116.079 135.282 116.413 137.821H105.877C106.58 135.464 108.786 134.41 111.293 134.41H111.297Z" fill="var(--fill-0, white)"/>
<path id="Vector_2" d="M139.831 0H0V18.7278H139.831V0Z" fill="var(--fill-0, white)"/>
<path id="Vector_3" d="M104.012 93.6678H139.831V74.7871H111.717L69.9588 32.7757L28.2832 74.7871H0V93.6678H36.0783L70.0247 59.5444L104.012 93.6678Z" fill="var(--fill-0, white)"/>
<path id="Vector_4" d="M8.2273 142.749V134.447H12.0055V130.929H8.2273V126.034H2.74106V130.929H0V134.447H2.74106V144.634C2.74106 148.95 5.85254 149.421 7.58937 149.421C9.09572 149.421 10.5321 149.314 12.0385 149.132V144.853C11.5034 144.89 10.9354 144.96 10.4004 144.96C8.6965 144.96 8.2273 144.489 8.2273 142.749Z" fill="var(--fill-0, white)"/>
<path id="Vector_5" d="M27.5094 130.458C24.0975 130.458 21.8215 131.657 20.3851 133.248V123.678H14.8659V149.277H20.3851V138.726C20.3851 137.709 20.5209 137.275 20.7514 136.804C21.9203 134.592 25.2334 134.592 25.468 134.592C27.0402 134.592 29.1804 135.138 29.8471 136.986C30.1147 137.676 30.1476 138.507 30.1476 139.305V149.277H35.6997V137.494C35.6997 132.198 31.5181 130.458 27.5053 130.458H27.5094Z" fill="var(--fill-0, white)"/>
<path id="Vector_6" d="M90.4386 130.313C87.6605 130.313 84.7507 131.218 82.9809 133.757C81.9109 131.33 79.0998 130.276 76.3588 130.276C72.7452 130.276 70.2716 131.801 69.2345 133.757V130.929H64.0158V149.277H69.502V139.09C69.502 135.175 71.9097 134.447 74.2845 134.447C77.4618 134.447 77.898 136.696 77.898 138.652V149.277H83.4831V139.669C83.4831 137.639 83.5489 135.898 85.4915 134.881C85.9278 134.662 86.8621 134.303 88.1338 134.303C90.842 134.303 91.8462 135.609 91.8462 138.18V149.277H97.3324V136.403C97.3324 131.905 94.221 130.313 90.4427 130.313H90.4386Z" fill="var(--fill-0, white)"/>
<path id="Vector_7" d="M131.081 123.678H125.595V149.277H131.081V123.678Z" fill="var(--fill-0, white)"/>
<path id="Vector_8" d="M140 123.665H134.514V128.11H140V123.665Z" fill="var(--fill-0, white)"/>
<path id="Vector_9" d="M140 130.929H134.514V149.277H140V130.929Z" fill="var(--fill-0, white)"/>
<path id="Vector_10" d="M55.0929 143.501C53.9611 145.084 51.7468 145.684 49.9688 145.684C46.1206 145.684 44.3015 143.418 44.0504 141.116H60.8384V140.425C60.8384 135.022 57.3277 130.201 49.7342 130.201C43.0133 130.201 38.3955 133.72 38.3955 139.921C38.3955 144.163 40.8031 150 49.6643 150C57.2166 150 60.7973 145.039 61.0936 143.501H55.0888H55.0929ZM49.6355 134.41C51.9114 134.41 54.4179 135.282 54.7513 137.821H44.2151C44.9189 135.464 47.1249 134.41 49.6313 134.41H49.6355Z" fill="var(--fill-0, white)"/>
</g>
</svg>
